<?xml version="1.0" standalone="yes"?>
<svg xmlns="http://www.w3.org/2000/svg" width="495" height="120">
<path style="fill:#010101; stroke:none;" d="M0 0L0 120L495 120L495 0L0 0z"/>
<path style="fill:#573804; stroke:none;" d="M338 6L338 7L341 7L338 6z"/>
<path style="fill:#a06708; stroke:none;" d="M341 6L341 7L344 7L341 6z"/>
<path style="fill:#ed980c; stroke:none;" d="M344 6.42516C333.812 7.73006 324.575 10.075 316 16.0394C266.788 50.2693 300.904 124.931 358 116.7C415.159 108.46 417.051 24.6347 364 8.72145C357.824 6.86885 350.423 5.60243 344 6.42516z"/>
<path style="fill:#a06708; stroke:none;" d="M351 6L351 7L354 7L351 6z"/>
<path style="fill:#573804; stroke:none;" d="M354 6L354 7L357 7L354 6M334 7L335 8L334 7z"/>
<path style="fill:#a06708; stroke:none;" d="M335 7L336 8L335 7M359 7L360 8L359 7z"/>
<path style="fill:#573804; stroke:none;" d="M360 7L361 8L360 7z"/>
<path style="fill:#a06708; stroke:none;" d="M331 8L332 9L331 8M363 8L364 9L363 8z"/>
<path style="fill:#573804; stroke:none;" d="M364 8L365 9L364 8z"/>
<path style="fill:#a06708; stroke:none;" d="M328 9L329 10L328 9M366 9L367 10L366 9z"/>
<path style="fill:#573804; stroke:none;" d="M367 9L368 10L367 9M325 10L326 11L325 10z"/>
<path style="fill:#a06708; stroke:none;" d="M326 10L327 11L326 10M369 10L370 11L369 10z"/>
<path style="fill:#573804; stroke:none;" d="M323 11L324 12L323 11z"/>
<path style="fill:#a06708; stroke:none;" d="M371 11L372 12L371 11z"/>
<path style="fill:#573804; stroke:none;" d="M372 11L373 12L372 11M321 12L322 13L321 12z"/>
<path style="fill:#a06708; stroke:none;" d="M373 12L374 13L373 12z"/>
<path style="fill:#573804; stroke:none;" d="M319 13L320 14L319 13z"/>
<path style="fill:#a06708; stroke:none;" d="M375 13L376 14L375 13M318 14L319 15L318 14z"/>
<path style="fill:#573804; stroke:none;" d="M377 14L378 15L377 14M316 15L317 16L316 15z"/>
<path style="fill:#a06708; stroke:none;" d="M378 15L379 16L378 15M315 16L316 17L315 16z"/>
<path style="fill:#573804; stroke:none;" d="M380 16L381 17L380 16z"/>
<path style="fill:#a06708; stroke:none;" d="M381 17L382 18L381 17z"/>
<path style="fill:#573804; stroke:none;" d="M312 18L313 19L312 18z"/>
<path style="fill:#a06708; stroke:none;" d="M382 18L383 19L382 18M311 19L312 20L311 19z"/>
<path style="fill:#573804; stroke:none;" d="M384 19L385 20L384 19z"/>
<path style="fill:#a06708; stroke:none;" d="M310 20L311 21L310 20z"/>
<path style="fill:#573804; stroke:none;" d="M385 20L386 21L385 20M386 21L387 22L386 21M387 22L388 23L387 22z"/>
<path style="fill:#a06708; stroke:none;" d="M307 23L308 24L307 23z"/>
<path style="fill:#573804; stroke:none;" d="M388 23L389 24L388 23z"/>
<path style="fill:#a06708; stroke:none;" d="M306 24L307 25L306 24z"/>
<path style="fill:#573804; stroke:none;" d="M389 24L390 25L389 24z"/>
<path style="fill:#a06708; stroke:none;" d="M305 25L306 26L305 25z"/>
<path style="fill:#573804; stroke:none;" d="M304 26L305 27L304 26M303 27L304 28L303 27z"/>
<path style="fill:#a06708; stroke:none;" d="M391 27L392 28L391 27M392 28L393 29L392 28M302 29L303 30L302 29z"/>
<path style="fill:#573804; stroke:none;" d="M393 29L394 30L393 29z"/>
<path style="fill:#a06708; stroke:none;" d="M301 30L302 31L301 30z"/>
<path style="fill:#573804; stroke:none;" d="M97 31L97 32L116 32L97 31M127 88L128 88L128 32L139 32C136.048 30.7611 129.389 29.6896 127.603 33.3179C125.514 37.5639 127 45.3467 127 50L127 88M144 31L144 32L155 32L155 88C159.607 77.02 156 57.944 156 46C156 42.4689 157.301 35.5434 154.972 32.6034C152.853 29.9281 147.003 31 144 31M157 32L157 33L169 32L157 32M175 31L175 32L211 32C201.44 27.9886 185.387 31 175 31M214 31L214 32L225 32L214 31M230 31L230 32L241 32L241 88C245.607 77.02 242 57.944 242 46C242 42.4689 243.301 35.5434 240.972 32.6034C238.853 29.9281 233.003 31 230 31M245 31L245 32L263 33L245 31M271 34L272 34L289 32C284.327 30.039 273.974 29.4124 271 34z"/>
<path style="fill:#a06708; stroke:none;" d="M394 31L395 32L394 31M97 32L97 88L98 88L98 50L97 32z"/>
<path style="fill:#ed980c; stroke:none;" d="M98 32L98 88L108 88L108 62C116.316 64.5246 113 80.882 113 88L124 88C124 79.8677 127.297 63.4663 119 59C125.161 53.7179 127.55 37.7626 118.956 33.179C113.459 30.2472 104.083 32 98 32z"/>
<path style="fill:#a06708; stroke:none;" d="M118 32L119 33L118 32z"/>
<path style="fill:#573804; stroke:none;" d="M119 32L120 33L119 32z"/>
<path style="fill:#ed980c; stroke:none;" d="M128 32L128 88L139 88L139 62C148.589 63.5292 145 80.5505 145 88L155 88L155 32L145 32L145 52L139 52L139 32L128 32z"/>
<path style="fill:#a06708; stroke:none;" d="M144 32L144 52L145 52L144 32z"/>
<path style="fill:#ed980c; stroke:none;" d="M158 32L167 88L177 88C177 68.5884 180.735 50.6906 186 32L175 32L172 50L171 50L169 32L158 32z"/>
<path style="fill:#a06708; stroke:none;" d="M186 32C185.301 38.3632 185.928 42.7678 193 43L193 42L187 42L186 32z"/>
<path style="fill:#ed980c; stroke:none;" d="M187 32L187 42L193 42L193 88L204 88L204 42L211 42L211 32L187 32z"/>
<path style="fill:#a06708; stroke:none;" d="M213 32L213 88L214 88L214 50L213 32z"/>
<path style="fill:#ed980c; stroke:none;" d="M214 32L214 88L224 88L224 62L230 62L230 88L241 88L241 32L230 32L230 52L224 52L224 32L214 32z"/>
<path style="fill:#a06708; stroke:none;" d="M224 32L224 52L225 52L224 32M245 32L245 88L246 88L246 50L245 32z"/>
<path style="fill:#ed980c; stroke:none;" d="M246 32L246 88L255 88L255 48L256 48L260.611 77L263.6 86.9722L272 88L278 48L279 48L279 88L289 88L289 32L272 32L268 65L267 65L262 32L246 32z"/>
<path style="fill:#a06708; stroke:none;" d="M309 32L308 34L309 32z"/>
<path style="fill:#573804; stroke:none;" d="M310 32L311 33L310 32M322 32L320 35L322 32z"/>
<path style="fill:#a06708; stroke:none;" d="M323 32L324 33L323 32z"/>
<path style="fill:#573804; stroke:none;" d="M372 32L373 33L372 32z"/>
<path style="fill:#a06708; stroke:none;" d="M373 32L377 36L373 32M384 32L385 33L384 32z"/>
<path style="fill:#573804; stroke:none;" d="M384 33L384 34L387 34L384 33M395 32L396 33L395 32z"/>
<path style="fill:#a06708; stroke:none;" d="M120 33L121 34L120 33z"/>
<path style="fill:#573804; stroke:none;" d="M174.333 33.6667L174.667 34.3333L174.333 33.6667z"/>
<path style="fill:#a06708; stroke:none;" d="M262.333 33.6667L262.667 34.3333L262.333 33.6667z"/>
<path style="fill:#573804; stroke:none;" d="M299 33L300 34L299 33z"/>
<path style="fill:#010101; stroke:none;" d="M309 33C300.789 47.8221 291.916 79.4205 311 91C300.24 67.9538 300.25 56.0254 311 33L309 33M324 91C314.153 76.9632 305.836 63.3318 314.529 46C316.985 41.1046 320.893 37.4281 324 33C303.053 41.4802 304.501 81.8815 324 91z"/>
<path style="fill:#a06708; stroke:none;" d="M371 33L372 34L371 33z"/>
<path style="fill:#010101; stroke:none;" d="M372 33C381.259 46.5543 389.193 59.3616 381.687 76C379.197 81.5193 375.178 85.9146 372 91C391.174 81.6507 391.347 42.2136 372 33M385 33C390.102 47.0198 396.524 57.4343 392.522 73C390.865 79.4407 386.975 84.7581 385 91L386 91C396.35 75.3055 401.476 47.0297 385 33z"/>
<path style="fill:#a06708; stroke:none;" d="M121 34L122 35L121 34M158.333 34.6667L158.667 35.3333L158.333 34.6667z"/>
<path style="fill:#573804; stroke:none;" d="M185.333 34.6667L185.667 35.3333L185.333 34.6667z"/>
<path style="fill:#a06708; stroke:none;" d="M271 34L271 37L272 37L271 34z"/>
<path style="fill:#573804; stroke:none;" d="M308 34L309 35L308 34M310 34L311 35L310 34z"/>
<path style="fill:#a06708; stroke:none;" d="M323 34L324 35L323 34z"/>
<path style="fill:#573804; stroke:none;" d="M372 34L373 35L372 34z"/>
<path style="fill:#a06708; stroke:none;" d="M384 34L385 35L384 34M387 34L388 35L387 34z"/>
<path style="fill:#573804; stroke:none;" d="M396 34L397 35L396 34z"/>
<path style="fill:#a06708; stroke:none;" d="M122 35L123 36L122 35z"/>
<path style="fill:#573804; stroke:none;" d="M169.333 35.6667L169.667 36.3333L169.333 35.6667z"/>
<path style="fill:#a06708; stroke:none;" d="M174.333 35.6667L174.667 36.3333L174.333 35.6667M298 35L299 36L298 35z"/>
<path style="fill:#573804; stroke:none;" d="M307 35L308 36L307 35M373 35L374 36L373 35M385 35L386 36L385 35M158 36L159 37L158 36z"/>
<path style="fill:#a06708; stroke:none;" d="M309 36L310 37L309 36z"/>
<path style="fill:#573804; stroke:none;" d="M318 36L319 37L318 36M374 36L375 37L374 36M386 36L387 37L386 36M388 36L389 37L388 36z"/>
<path style="fill:#a06708; stroke:none;" d="M397 36L398 37L397 36M123 37L124 38L123 37M169 37L170 38L169 37M184.333 37.6667L184.667 38.3333L184.333 37.6667z"/>
<path style="fill:#573804; stroke:none;" d="M263 37L263 40L264 40L263 37z"/>
<path style="fill:#a06708; stroke:none;" d="M297 37L298 38L297 37z"/>
<path style="fill:#573804; stroke:none;" d="M306 37L307 38L306 37M308 37L309 38L308 37M317 37L318 38L317 37z"/>
<path style="fill:#a06708; stroke:none;" d="M320 37L321 38L320 37z"/>
<path style="fill:#573804; stroke:none;" d="M375 37L376 38L375 37z"/>
<path style="fill:#a06708; stroke:none;" d="M386 37L387 38L386 37M159.333 38.6667L159.667 39.3333L159.333 38.6667M305 38L306 39L305 38M316 38L317 39L316 38M319 38L320 39L319 38M346 38L346 39L350 39L346 38z"/>
<path style="fill:#573804; stroke:none;" d="M376 38L377 39L376 38M378 38L379 39L378 38M387 38L388 39L387 38M389 38L390 39L389 38M398 38L399 39L398 38M173.333 39.6667L173.667 40.3333L173.333 39.6667M184 39L185 40L184 39M270 39L270 42L271 42L270 39z"/>
<path style="fill:#a06708; stroke:none;" d="M296 39L297 40L296 39M307 39L308 40L307 39z"/>
<path style="fill:#573804; stroke:none;" d="M318 39L319 40L318 39z"/>
<path style="fill:#a06708; stroke:none;" d="M341 39L342 40L341 39z"/>
<path style="fill:#573804; stroke:none;" d="M342 39L343 40L342 39z"/>
<path style="fill:#010101; stroke:none;" d="M343 39.5185C314.415 45.7089 323.466 90.4749 352 84.3302C381.254 78.0306 372.154 33.2048 343 39.5185z"/>
<path style="fill:#573804; stroke:none;" d="M352 39L353 40L352 39z"/>
<path style="fill:#a06708; stroke:none;" d="M353.667 39.3333L354.333 39.6667L353.667 39.3333M379 39L380 40L379 39M390 39L391 40L390 39z"/>
<path style="fill:#573804; stroke:none;" d="M124.333 40.6667L124.667 41.3333L124.333 40.6667M159 40L160 41L159 40z"/>
<path style="fill:#a06708; stroke:none;" d="M263.333 40.6667L263.667 41.3333L263.333 40.6667M304 40L305 41L304 40z"/>
<path style="fill:#573804; stroke:none;" d="M317 40L318 41L317 40z"/>
<path style="fill:#a06708; stroke:none;" d="M338 40L339 41L338 40z"/>
<path style="fill:#573804; stroke:none;" d="M339 40L340 41L339 40z"/>
<path style="fill:#a06708; stroke:none;" d="M356 40L357 41L356 40M377 40L378 41L377 40M388 40L389 41L388 40z"/>
<path style="fill:#573804; stroke:none;" d="M399 40L400 41L399 40M170.333 41.6667L170.667 42.3333L170.333 41.6667z"/>
<path style="fill:#a06708; stroke:none;" d="M173.333 41.6667L173.667 42.3333L173.333 41.6667M183.333 41.6667L183.667 42.3333L183.333 41.6667z"/>
<path style="fill:#573804; stroke:none;" d="M295 41L296 42L295 41z"/>
<path style="fill:#a06708; stroke:none;" d="M306 41L307 42L306 41M314 41L315 42L314 41M336 41L337 42L336 41z"/>
<path style="fill:#573804; stroke:none;" d="M358 41L359 42L358 41M378 41L379 42L378 41z"/>
<path style="fill:#a06708; stroke:none;" d="M391 41L392 42L391 41M399 41L400 42L399 41M108 42L108 52L109 52L108 42z"/>
<path style="fill:#010101; stroke:none;" d="M109 42L109 52L113 52C112.997 47.6544 113.7 43.5599 109 42z"/>
<path style="fill:#573804; stroke:none;" d="M112 42L113 43L112 42z"/>
<path style="fill:#a06708; stroke:none;" d="M124 42L124 51L125 51L124 42z"/>
<path style="fill:#573804; stroke:none;" d="M186 42L187 43L186 42z"/>
<path style="fill:#a06708; stroke:none;" d="M204 42L204 43L211 43L204 42M270.333 42.6667L270.667 43.3333L270.333 42.6667M295 42L296 43L295 42M303 42L304 43L303 42M316 42L317 43L316 42z"/>
<path style="fill:#573804; stroke:none;" d="M335 42L336 43L335 42z"/>
<path style="fill:#a06708; stroke:none;" d="M360 42L361 43L360 42M381 42L382 43L381 42M389 42L390 43L389 42z"/>
<path style="fill:#573804; stroke:none;" d="M391 42L392 43L391 42z"/>
<path style="fill:#a06708; stroke:none;" d="M113 43L114 44L113 43M160 43L161 44L160 43M170.333 43.6667L170.667 44.3333L170.333 43.6667z"/>
<path style="fill:#573804; stroke:none;" d="M183 43L184 44L183 43M204 43L204 88L205 88C205 75.258 208.91 54.7012 204 43M303 43L304 44L303 43z"/>
<path style="fill:#a06708; stroke:none;" d="M305 43L306 44L305 43M313 43L314 44L313 43z"/>
<path style="fill:#573804; stroke:none;" d="M315 43L316 44L315 43z"/>
<path style="fill:#a06708; stroke:none;" d="M333 43L334 44L333 43z"/>
<path style="fill:#573804; stroke:none;" d="M361 43L362 44L361 43z"/>
<path style="fill:#a06708; stroke:none;" d="M379 43L380 44L379 43z"/>
<path style="fill:#573804; stroke:none;" d="M400 43L401 44L400 43M113 44L113 50L114 50L113 44M160 44L161 45L160 44M294 44L295 45L294 44z"/>
<path style="fill:#a06708; stroke:none;" d="M332 44L333 45L332 44M382 44L383 45L382 44z"/>
<path style="fill:#573804; stroke:none;" d="M390 44L391 45L390 44M392 44L393 45L392 44z"/>
<path style="fill:#a06708; stroke:none;" d="M400 44L401 45L400 44z"/>
<path style="fill:#573804; stroke:none;" d="M172 45L171 49L172 49L172 45M264.333 45.6667L264.667 46.3333L264.333 45.6667z"/>
<path style="fill:#a06708; stroke:none;" d="M294 45L295 46L294 45z"/>
<path style="fill:#573804; stroke:none;" d="M302 45L303 46L302 45M304 45L305 46L304 45M312 45L313 46L312 45M331 45L332 46L331 45z"/>
<path style="fill:#a06708; stroke:none;" d="M380 45L381 46L380 45M182 46L183 47L182 46z"/>
<path style="fill:#573804; stroke:none;" d="M269 46L269 49L270 49L269 46z"/>
<path style="fill:#a06708; stroke:none;" d="M304 46L305 47L304 46z"/>
<path style="fill:#573804; stroke:none;" d="M330 46L331 47L330 46M381 46L382 47L381 46z"/>
<path style="fill:#a06708; stroke:none;" d="M383 46L384 47L383 46z"/>
<path style="fill:#573804; stroke:none;" d="M391.333 46.6667L391.667 47.3333L391.333 46.6667z"/>
<path style="fill:#a06708; stroke:none;" d="M393 46L394 47L393 46z"/>
<path style="fill:#573804; stroke:none;" d="M401 46L402 47L401 46z"/>
<path style="fill:#a06708; stroke:none;" d="M161 47L162 48L161 47M172.333 47.6667L172.667 48.3333L172.333 47.6667z"/>
<path style="fill:#573804; stroke:none;" d="M182 47L183 48L182 47z"/>
<path style="fill:#a06708; stroke:none;" d="M264.333 47.6667L264.667 48.3333L264.333 47.6667z"/>
<path style="fill:#573804; stroke:none;" d="M293 47L294 48L293 47z"/>
<path style="fill:#a06708; stroke:none;" d="M311 47L312 48L311 47z"/>
<path style="fill:#573804; stroke:none;" d="M313 47L314 48L313 47z"/>
<path style="fill:#a06708; stroke:none;" d="M329 47L330 48L329 47z"/>
<path style="fill:#573804; stroke:none;" d="M365 47L366 48L365 47z"/>
<path style="fill:#a06708; stroke:none;" d="M381 47L382 48L381 47z"/>
<path style="fill:#573804; stroke:none;" d="M393 47L394 48L393 47z"/>
<path style="fill:#a06708; stroke:none;" d="M401 47L402 48L401 47z"/>
<path style="fill:#573804; stroke:none;" d="M161.333 48.6667L161.667 49.3333L161.333 48.6667z"/>
<path style="fill:#a06708; stroke:none;" d="M255.333 48.6667L255.667 49.3333L255.333 48.6667M278.333 48.6667L278.667 49.3333L278.333 48.6667M293.333 48.6667L293.667 49.3333L293.333 48.6667z"/>
<path style="fill:#573804; stroke:none;" d="M301 48L302 49L301 48M303 48L304 49L303 48M311 48L312 49L311 48z"/>
<path style="fill:#a06708; stroke:none;" d="M313 48L314 49L313 48z"/>
<path style="fill:#573804; stroke:none;" d="M366 48L367 49L366 48z"/>
<path style="fill:#a06708; stroke:none;" d="M391 48L392 49L391 48M171 49L172 50L171 49M269.333 49.6667L269.667 50.3333L269.333 49.6667M303 49L304 50L303 49M367 49L368 50L367 49z"/>
<path style="fill:#573804; stroke:none;" d="M382 49L383 50L382 49M384 49L385 50L384 49z"/>
<path style="fill:#a06708; stroke:none;" d="M113 50L114 51L113 50M181 50L182 51L181 50z"/>
<path style="fill:#573804; stroke:none;" d="M255 50L255 88L256 88C256 77.7083 259.691 59.0222 255 50M278 50L278 53L279 53L278 50z"/>
<path style="fill:#a06708; stroke:none;" d="M310 50L311 51L310 50z"/>
<path style="fill:#573804; stroke:none;" d="M312 50L313 51L312 50z"/>
<path style="fill:#a06708; stroke:none;" d="M327 50L328 51L327 50M382 50L383 51L382 50z"/>
<path style="fill:#573804; stroke:none;" d="M392 50L393 51L392 50z"/>
<path style="fill:#a06708; stroke:none;" d="M394 50L395 51L394 50z"/>
<path style="fill:#573804; stroke:none;" d="M402 50L403 51L402 50M124.333 51.6667L124.667 52.3333L124.333 51.6667z"/>
<path style="fill:#a06708; stroke:none;" d="M162 51L163 52L162 51z"/>
<path style="fill:#573804; stroke:none;" d="M181.333 51.6667L181.667 52.3333L181.333 51.6667M302.333 51.6667L302.667 52.3333L302.333 51.6667z"/>
<path style="fill:#a06708; stroke:none;" d="M312 51L313 52L312 51M368 51L369 52L368 51M392.333 51.6667L392.667 52.3333L392.333 51.6667z"/>
<path style="fill:#573804; stroke:none;" d="M394 51L395 52L394 51z"/>
<path style="fill:#a06708; stroke:none;" d="M402 51L403 52L402 51z"/>
<path style="fill:#573804; stroke:none;" d="M109 52L109 53L112 53L109 52z"/>
<path style="fill:#a06708; stroke:none;" d="M112 52L113 53L112 52z"/>
<path style="fill:#573804; stroke:none;" d="M162.333 52.6667L162.667 53.3333L162.333 52.6667z"/>
<path style="fill:#a06708; stroke:none;" d="M256.333 52.6667L256.667 53.3333L256.333 52.6667z"/>
<path style="fill:#573804; stroke:none;" d="M265.333 52.6667L265.667 53.3333L265.333 52.6667M292 52L293 53L292 52z"/>
<path style="fill:#a06708; stroke:none;" d="M300 52L301 53L300 52M326 52L327 53L326 52z"/>
<path style="fill:#573804; stroke:none;" d="M343 52L344 53L343 52z"/>
<path style="fill:#a06708; stroke:none;" d="M344 52L345 53L344 52z"/>
<path style="fill:#ed980c; stroke:none;" d="M341 54L341 60L339 57C334.678 71.6603 352.047 76.4876 358 63L354 63L354 66C353.075 62.6039 353.974 61.7362 357 60C354.72 51.9686 347.866 51.5022 341 54z"/>
<path style="fill:#a06708; stroke:none;" d="M350 52L351 53L350 52z"/>
<path style="fill:#573804; stroke:none;" d="M351 52L352 53L351 52M368 52L369 53L368 52M383 52L384 53L383 52z"/>
<path style="fill:#a06708; stroke:none;" d="M385 52L386 53L385 52M292 53L292 56L293 56L292 53z"/>
<path style="fill:#573804; stroke:none;" d="M300 53L301 54L300 53z"/>
<path style="fill:#a06708; stroke:none;" d="M302.333 53.6667L302.667 54.3333L302.333 53.6667z"/>
<path style="fill:#573804; stroke:none;" d="M326 53L327 54L326 53z"/>
<path style="fill:#a06708; stroke:none;" d="M342 53L343 54L342 53z"/>
<path style="fill:#573804; stroke:none;" d="M353 53L354 54L353 53z"/>
<path style="fill:#a06708; stroke:none;" d="M369 53L370 54L369 53M383 53L384 54L383 53z"/>
<path style="fill:#573804; stroke:none;" d="M385 53L386 54L385 53z"/>
<path style="fill:#a06708; stroke:none;" d="M123 54L124 55L123 54M180 54L181 55L180 54M265 54L265 57L266 57L265 54z"/>
<path style="fill:#573804; stroke:none;" d="M268.333 54.6667L268.667 55.3333L268.333 54.6667z"/>
<path style="fill:#a06708; stroke:none;" d="M277.333 54.6667L277.667 55.3333L277.333 54.6667M309 54L310 55L309 54z"/>
<path style="fill:#573804; stroke:none;" d="M311 54L312 55L311 54z"/>
<path style="fill:#a06708; stroke:none;" d="M325 54L326 55L325 54z"/>
<path style="fill:#573804; stroke:none;" d="M340 54L341 55L340 54z"/>
<path style="fill:#a06708; stroke:none;" d="M354 54L355 55L354 54z"/>
<path style="fill:#573804; stroke:none;" d="M369 54L370 55L369 54z"/>
<path style="fill:#a06708; stroke:none;" d="M395 54L395 57L396 57L395 54M163.333 55.6667L163.667 56.3333L163.333 55.6667z"/>
<path style="fill:#573804; stroke:none;" d="M180.333 55.6667L180.667 56.3333L180.333 55.6667M309 55L310 56L309 55z"/>
<path style="fill:#a06708; stroke:none;" d="M311.333 55.6667L311.667 56.3333L311.333 55.6667z"/>
<path style="fill:#573804; stroke:none;" d="M325.333 55.6667L325.667 56.3333L325.333 55.6667z"/>
<path style="fill:#edb863; stroke:none;" d="M340 55L340 60L341 60L340 55z"/>
<path style="fill:#a06708; stroke:none;" d="M355 55L356 56L355 55z"/>
<path style="fill:#573804; stroke:none;" d="M393 55L394 56L393 55M122 56L123 57L122 56z"/>
<path style="fill:#a06708; stroke:none;" d="M268.333 56.6667L268.667 57.3333L268.333 56.6667z"/>
<path style="fill:#573804; stroke:none;" d="M277.333 56.6667L277.667 57.3333L277.333 56.6667z"/>
<path style="fill:#a06708; stroke:none;" d="M339 56L340 57L339 56z"/>
<path style="fill:#573804; stroke:none;" d="M356 56L357 57L356 56z"/>
<path style="fill:#a06708; stroke:none;" d="M386 56L386 60L387 60L386 56M393.333 56.6667L393.667 57.3333L393.333 56.6667z"/>
<path style="fill:#573804; stroke:none;" d="M121 57L122 58L121 57M163 57L164 58L163 57z"/>
<path style="fill:#a06708; stroke:none;" d="M299 57L299 67L300 67L299 57z"/>
<path style="fill:#573804; stroke:none;" d="M338 57L339 58L338 57z"/>
<path style="fill:#a06708; stroke:none;" d="M370 57L371 58L370 57z"/>
<path style="fill:#573804; stroke:none;" d="M384.333 57.6667L384.667 58.3333L384.333 57.6667M395 57L395 61L396 61L395 57M403 57L403 67L404 67L403 57z"/>
<path style="fill:#a06708; stroke:none;" d="M119 58L120 59L119 58M179.333 58.6667L179.667 59.3333L179.333 58.6667M257.333 58.6667L257.667 59.3333L257.333 58.6667z"/>
<path style="fill:#573804; stroke:none;" d="M301 58L301 66L302 66L301 58M370 58L371 59L370 58M121 59L122 60L121 59z"/>
<path style="fill:#a06708; stroke:none;" d="M164.333 59.6667L164.667 60.3333L164.333 59.6667z"/>
<path style="fill:#573804; stroke:none;" d="M266 59L267 63L268 63L266 59z"/>
<path style="fill:#a06708; stroke:none;" d="M324 59L324 65L325 65L324 59z"/>
<path style="fill:#573804; stroke:none;" d="M357 59L358 60L357 59z"/>
<path style="fill:#a06708; stroke:none;" d="M384 59L384 64L385 64L384 59z"/>
<path style="fill:#573804; stroke:none;" d="M122 60L123 61L122 60M179 60L180 61L179 60M257.333 60.6667L257.667 61.3333L257.333 60.6667z"/>
<path style="fill:#a06708; stroke:none;" d="M276.333 60.6667L276.667 61.3333L276.333 60.6667M308 60L308 64L309 64L308 60z"/>
<path style="fill:#edb863; stroke:none;" d="M354 66L354 63L358 63L357 60C353.669 61.2263 351.788 62.7185 354 66z"/>
<path style="fill:#a06708; stroke:none;" d="M357 60L358 61L357 60z"/>
<path style="fill:#573804; stroke:none;" d="M386 60L386 64L387 64L386 60M164 61L165 62L164 61M337.333 61.6667L337.667 62.3333L337.333 61.6667z"/>
<path style="fill:#edb863; stroke:none;" d="M339 65L339 66L343 66L343 62L344 62L344 66L348 63L349 63L351 66L351 61L347 61L346 65L345 65L346 61L339 65z"/>
<path style="fill:#ed980c; stroke:none;" d="M357 61L358 62L357 61z"/>
<path style="fill:#a06708; stroke:none;" d="M108 62L108 88L109 88L108 62z"/>
<path style="fill:#573804; stroke:none;" d="M109.667 62.3333L110.333 62.6667L109.667 62.3333z"/>
<path style="fill:#a06708; stroke:none;" d="M111 62L112 63L111 62z"/>
<path style="fill:#573804; stroke:none;" d="M123 62L124 63L123 62M139 62L139 63L144 63L139 62z"/>
<path style="fill:#a06708; stroke:none;" d="M178.333 62.6667L178.667 63.3333L178.333 62.6667M224 62L224 88L225 88L224 62z"/>
<path style="fill:#573804; stroke:none;" d="M225 62L225 63L230 63L225 62z"/>
<path style="fill:#a06708; stroke:none;" d="M266 62L268 65L266 62z"/>
<path style="fill:#573804; stroke:none;" d="M276.333 62.6667L276.667 63.3333L276.333 62.6667z"/>
<path style="fill:#a06708; stroke:none;" d="M112 63L113 64L112 63M123 63L124 64L123 63M144 63L144 88L145 88L144 63M393 63L394 64L393 63z"/>
<path style="fill:#573804; stroke:none;" d="M395 63L395 67L396 67L395 63M112 64L113 65L112 64z"/>
<path style="fill:#a06708; stroke:none;" d="M165 64L166 65L165 64z"/>
<path style="fill:#573804; stroke:none;" d="M178 64L179 65L178 64z"/>
<path style="fill:#a06708; stroke:none;" d="M258.333 64.6667L258.667 65.3333L258.333 64.6667z"/>
<path style="fill:#573804; stroke:none;" d="M357 64L358 65L357 64M384 64L384 67L385 67L384 64z"/>
<path style="fill:#a06708; stroke:none;" d="M386 64L386 68L387 68L386 64z"/>
<path style="fill:#573804; stroke:none;" d="M165 65L166 66L165 65M370 65L371 66L370 65z"/>
<path style="fill:#a06708; stroke:none;" d="M393 65L393 68L394 68L393 65z"/>
<path style="fill:#573804; stroke:none;" d="M258.333 66.6667L258.667 67.3333L258.333 66.6667z"/>
<path style="fill:#a06708; stroke:none;" d="M275.333 66.6667L275.667 67.3333L275.333 66.6667z"/>
<path style="fill:#573804; stroke:none;" d="M338 66L339 67L338 66z"/>
<path style="fill:#a06708; stroke:none;" d="M356 66L357 67L356 66M370 66L371 67L370 66M177 67L178 68L177 67M311.333 67.6667L311.667 68.3333L311.333 67.6667z"/>
<path style="fill:#573804; stroke:none;" d="M325.333 67.6667L325.667 68.3333L325.333 67.6667z"/>
<path style="fill:#a06708; stroke:none;" d="M339 67L340 68L339 67M395 67L395 70L396 70L395 67M166 68L167 69L166 68z"/>
<path style="fill:#573804; stroke:none;" d="M177.333 68.6667L177.667 69.3333L177.333 68.6667M275.333 68.6667L275.667 69.3333L275.333 68.6667z"/>
<path style="fill:#a06708; stroke:none;" d="M292 68L292 71L293 71L292 68z"/>
<path style="fill:#573804; stroke:none;" d="M309 68L310 69L309 68M355 68L356 69L355 68M393 68L394 69L393 68M166 69L166 88L167 88L166 69z"/>
<path style="fill:#a06708; stroke:none;" d="M302.333 69.6667L302.667 70.3333L302.333 69.6667M309 69L310 70L309 69z"/>
<path style="fill:#573804; stroke:none;" d="M311 69L312 70L311 69M354 69L355 70L354 69M369 69L370 70L369 69z"/>
<path style="fill:#a06708; stroke:none;" d="M383.333 69.6667L383.667 70.3333L383.333 69.6667M259.333 70.6667L259.667 71.3333L259.333 70.6667z"/>
<path style="fill:#573804; stroke:none;" d="M300 70L301 71L300 70M326 70L327 71L326 70z"/>
<path style="fill:#a06708; stroke:none;" d="M342 70L343 71L342 70z"/>
<path style="fill:#573804; stroke:none;" d="M353 70L354 71L353 70z"/>
<path style="fill:#a06708; stroke:none;" d="M369 70L370 71L369 70z"/>
<path style="fill:#573804; stroke:none;" d="M385 70L386 71L385 70M292 71L293 72L292 71z"/>
<path style="fill:#a06708; stroke:none;" d="M300 71L301 72L300 71z"/>
<path style="fill:#573804; stroke:none;" d="M302 71L303 72L302 71z"/>
<path style="fill:#a06708; stroke:none;" d="M326 71L327 72L326 71z"/>
<path style="fill:#573804; stroke:none;" d="M343 71L344 72L343 71z"/>
<path style="fill:#a06708; stroke:none;" d="M344.667 71.3333L345.333 71.6667L344.667 71.3333M350 71L351 72L350 71z"/>
<path style="fill:#573804; stroke:none;" d="M351 71L352 72L351 71M368 71L369 72L368 71M383 71L384 72L383 71z"/>
<path style="fill:#a06708; stroke:none;" d="M385 71L386 72L385 71M392.333 71.6667L392.667 72.3333L392.333 71.6667z"/>
<path style="fill:#573804; stroke:none;" d="M259.333 72.6667L259.667 73.3333L259.333 72.6667z"/>
<path style="fill:#a06708; stroke:none;" d="M312 72L313 73L312 72M368 72L369 73L368 72z"/>
<path style="fill:#573804; stroke:none;" d="M394 72L395 73L394 72z"/>
<path style="fill:#a06708; stroke:none;" d="M402 72L403 73L402 72M274.333 73.6667L274.667 74.3333L274.333 73.6667M310 73L311 74L310 73z"/>
<path style="fill:#573804; stroke:none;" d="M312 73L313 74L312 73z"/>
<path style="fill:#a06708; stroke:none;" d="M327 73L328 74L327 73z"/>
<path style="fill:#573804; stroke:none;" d="M367 73L368 74L367 73z"/>
<path style="fill:#a06708; stroke:none;" d="M382 73L383 74L382 73z"/>
<path style="fill:#573804; stroke:none;" d="M392 73L393 74L392 73z"/>
<path style="fill:#a06708; stroke:none;" d="M394 73L395 74L394 73z"/>
<path style="fill:#573804; stroke:none;" d="M402 73L403 74L402 73z"/>
<path style="fill:#a06708; stroke:none;" d="M293 74L294 75L293 74M303 74L304 75L303 74z"/>
<path style="fill:#573804; stroke:none;" d="M328 74L329 75L328 74z"/>
<path style="fill:#a06708; stroke:none;" d="M367 74L368 75L367 74z"/>
<path style="fill:#573804; stroke:none;" d="M382 74L383 75L382 74M384 74L385 75L384 74M274.333 75.6667L274.667 76.3333L274.333 75.6667M293.333 75.6667L293.667 76.3333L293.333 75.6667M301 75L302 76L301 75M303 75L304 76L303 75M311 75L312 76L311 75z"/>
<path style="fill:#a06708; stroke:none;" d="M313 75L314 76L313 75M366 75L367 76L366 75M391 75L392 76L391 75M260 76L261 77L260 76M311 76L312 77L311 76M329 76L330 77L329 76z"/>
<path style="fill:#573804; stroke:none;" d="M365 76L366 77L365 76z"/>
<path style="fill:#a06708; stroke:none;" d="M381 76L382 77L381 76z"/>
<path style="fill:#573804; stroke:none;" d="M383 76L384 77L383 76M391 76L392 77L391 76M393 76L394 77L393 76z"/>
<path style="fill:#a06708; stroke:none;" d="M401 76L402 77L401 76z"/>
<path style="fill:#573804; stroke:none;" d="M260.333 77.6667L260.667 78.3333L260.333 77.6667M302.333 77.6667L302.667 78.3333L302.333 77.6667z"/>
<path style="fill:#a06708; stroke:none;" d="M304 77L305 78L304 77M314 77L315 78L314 77M330 77L331 78L330 77z"/>
<path style="fill:#573804; stroke:none;" d="M364 77L365 78L364 77z"/>
<path style="fill:#a06708; stroke:none;" d="M383 77L384 78L383 77z"/>
<path style="fill:#573804; stroke:none;" d="M401 77L402 78L401 77z"/>
<path style="fill:#a06708; stroke:none;" d="M294 78L295 79L294 78z"/>
<path style="fill:#573804; stroke:none;" d="M304 78L305 79L304 78z"/>
<path style="fill:#a06708; stroke:none;" d="M312 78L313 79L312 78M331 78L332 79L331 78M380 78L381 79L380 78M390 78L391 79L390 78M273.333 79.6667L273.667 80.3333L273.333 79.6667z"/>
<path style="fill:#573804; stroke:none;" d="M294 79L295 80L294 79z"/>
<path style="fill:#a06708; stroke:none;" d="M315 79L316 80L315 79M332 79L333 80L332 79z"/>
<path style="fill:#573804; stroke:none;" d="M362 79L363 80L362 79z"/>
<path style="fill:#a06708; stroke:none;" d="M382 79L383 80L382 79z"/>
<path style="fill:#573804; stroke:none;" d="M390 79L391 80L390 79M392 79L393 80L392 79z"/>
<path style="fill:#a06708; stroke:none;" d="M400 79L401 80L400 79z"/>
<path style="fill:#573804; stroke:none;" d="M303 80L304 81L303 80z"/>
<path style="fill:#a06708; stroke:none;" d="M305 80L306 81L305 80M313 80L314 81L313 80M333 80L334 81L333 80z"/>
<path style="fill:#573804; stroke:none;" d="M361 80L362 81L361 80z"/>
<path style="fill:#a06708; stroke:none;" d="M379 80L380 81L379 80z"/>
<path style="fill:#573804; stroke:none;" d="M400 80L401 81L400 80z"/>
<path style="fill:#a06708; stroke:none;" d="M261.333 81.6667L261.667 82.3333L261.333 81.6667z"/>
<path style="fill:#573804; stroke:none;" d="M273.333 81.6667L273.667 82.3333L273.333 81.6667z"/>
<path style="fill:#a06708; stroke:none;" d="M295 81L296 82L295 81M303 81L304 82L303 81M316 81L317 82L316 81z"/>
<path style="fill:#573804; stroke:none;" d="M335 81L336 82L335 81M359 81L360 82L359 81z"/>
<path style="fill:#a06708; stroke:none;" d="M360 81L361 82L360 81M381 81L382 82L381 81z"/>
<path style="fill:#573804; stroke:none;" d="M389 81L390 82L389 81M391 81L392 82L391 81z"/>
<path style="fill:#a06708; stroke:none;" d="M306 82L307 83L306 82M314 82L315 83L314 82z"/>
<path style="fill:#573804; stroke:none;" d="M337 82L338 83L337 82z"/>
<path style="fill:#a06708; stroke:none;" d="M358 82L359 83L358 82z"/>
<path style="fill:#573804; stroke:none;" d="M378 82L379 83L378 82M380 82L381 83L380 82z"/>
<path style="fill:#a06708; stroke:none;" d="M391 82L392 83L391 82M399 82L400 83L399 82z"/>
<path style="fill:#573804; stroke:none;" d="M261.333 83.6667L261.667 84.3333L261.333 83.6667z"/>
<path style="fill:#a06708; stroke:none;" d="M304 83L305 84L304 83z"/>
<path style="fill:#573804; stroke:none;" d="M315 83L316 84L315 83M317 83L318 84L317 83M339 83L340 84L339 83M355 83L356 84L355 83z"/>
<path style="fill:#a06708; stroke:none;" d="M356 83L357 84L356 83M377 83L378 84L377 83M388 83L389 84L388 83z"/>
<path style="fill:#573804; stroke:none;" d="M390 83L391 84L390 83M296 84L297 85L296 84M307 84L308 85L307 84M318 84L319 85L318 84z"/>
<path style="fill:#a06708; stroke:none;" d="M341.667 84.3333L342.333 84.6667L341.667 84.3333z"/>
<path style="fill:#573804; stroke:none;" d="M343 84L344 85L343 84M351.667 84.3333L352.333 84.6667L351.667 84.3333z"/>
<path style="fill:#a06708; stroke:none;" d="M353 84L354 85L353 84M376 84L377 85L376 84M379 84L380 85L379 84M390 84L391 85L390 84M272.333 85.6667L272.667 86.3333L272.333 85.6667M316 85L317 86L316 85M319 85L320 86L319 85z"/>
<path style="fill:#573804; stroke:none;" d="M378 85L379 86L378 85M387 85L388 86L387 85M389 85L390 86L389 85M398 85L399 86L398 85z"/>
<path style="fill:#a06708; stroke:none;" d="M297 86L298 87L297 86z"/>
<path style="fill:#573804; stroke:none;" d="M306 86L307 87L306 86M308 86L309 87L308 86z"/>
<path style="fill:#a06708; stroke:none;" d="M317 86L318 87L317 86M320 86L321 87L320 86z"/>
<path style="fill:#573804; stroke:none;" d="M377 86L378 87L377 86z"/>
<path style="fill:#a06708; stroke:none;" d="M386 86L387 87L386 86M262 87L263 88L262 87z"/>
<path style="fill:#573804; stroke:none;" d="M272 87L273 88L272 87z"/>
<path style="fill:#a06708; stroke:none;" d="M309 87L310 88L309 87z"/>
<path style="fill:#573804; stroke:none;" d="M318 87L319 88L318 87z"/>
<path style="fill:#a06708; stroke:none;" d="M321 87L322 88L321 87z"/>
<path style="fill:#573804; stroke:none;" d="M374 87L375 88L374 87M388 87L389 88L388 87M397 87L398 88L397 87M298 88L299 89L298 88z"/>
<path style="fill:#a06708; stroke:none;" d="M307 88L308 89L307 88z"/>
<path style="fill:#573804; stroke:none;" d="M319 88L320 89L319 88z"/>
<path style="fill:#a06708; stroke:none;" d="M322 88L323 89L322 88z"/>
<path style="fill:#573804; stroke:none;" d="M373 88L374 89L373 88M385 88L386 89L385 88M387 88L388 89L387 88z"/>
<path style="fill:#a06708; stroke:none;" d="M396 88L397 89L396 88z"/>
<path style="fill:#573804; stroke:none;" d="M308 89L309 90L308 89M310 89L311 90L310 89M320 89L321 90L320 89z"/>
<path style="fill:#a06708; stroke:none;" d="M323 89L324 90L323 89z"/>
<path style="fill:#573804; stroke:none;" d="M372 89L373 90L372 89z"/>
<path style="fill:#a06708; stroke:none;" d="M384 89L385 90L384 89M387 89L388 90L387 89z"/>
<path style="fill:#573804; stroke:none;" d="M396 89L397 90L396 89M299 90L300 91L299 90M321 90L322 91L321 90z"/>
<path style="fill:#a06708; stroke:none;" d="M371 90L372 91L371 90M374 90L375 91L374 90z"/>
<path style="fill:#573804; stroke:none;" d="M384 90L385 91L384 90z"/>
<path style="fill:#a06708; stroke:none;" d="M386 90L387 91L386 90M395 90L396 91L395 90M300 91L301 92L300 91M310 91L311 92L310 91M322 91L323 92L322 91M372 91L373 92L372 91M385 91L386 92L385 91z"/>
<path style="fill:#573804; stroke:none;" d="M394 92L395 93L394 92M301 93L302 94L301 93z"/>
<path style="fill:#a06708; stroke:none;" d="M302 94L303 95L302 94z"/>
<path style="fill:#573804; stroke:none;" d="M392 95L393 96L392 95M303 96L304 97L303 96z"/>
<path style="fill:#a06708; stroke:none;" d="M391 96L392 97L391 96z"/>
<path style="fill:#573804; stroke:none;" d="M304 97L305 98L304 97z"/>
<path style="fill:#a06708; stroke:none;" d="M390 97L391 98L390 97M305 98L306 99L305 98M306 99L307 100L306 99M307 100L308 101L307 100z"/>
<path style="fill:#573804; stroke:none;" d="M388 100L389 101L388 100z"/>
<path style="fill:#a06708; stroke:none;" d="M308 101L309 102L308 101z"/>
<path style="fill:#573804; stroke:none;" d="M387 101L388 102L387 101z"/>
<path style="fill:#a06708; stroke:none;" d="M309 102L310 103L309 102z"/>
<path style="fill:#573804; stroke:none;" d="M386 102L387 103L386 102z"/>
<path style="fill:#a06708; stroke:none;" d="M310 103L311 104L310 103M311 104L312 105L311 104M383 104L384 105L383 104z"/>
<path style="fill:#573804; stroke:none;" d="M312 105L313 106L312 105z"/>
<path style="fill:#a06708; stroke:none;" d="M382 105L383 106L382 105z"/>
<path style="fill:#573804; stroke:none;" d="M381 106L382 107L381 106z"/>
<path style="fill:#a06708; stroke:none;" d="M315 107L316 108L315 107z"/>
<path style="fill:#573804; stroke:none;" d="M316 108L317 109L316 108z"/>
<path style="fill:#a06708; stroke:none;" d="M378 108L379 109L378 108M318 109L319 110L318 109M376 109L377 110L376 109z"/>
<path style="fill:#573804; stroke:none;" d="M377 109L378 110L377 109z"/>
<path style="fill:#a06708; stroke:none;" d="M320 110L321 111L320 110z"/>
<path style="fill:#573804; stroke:none;" d="M375 110L376 111L375 110M321 111L322 112L321 111M373 111L374 112L373 111M323 112L324 113L323 112z"/>
<path style="fill:#a06708; stroke:none;" d="M324 112L325 113L324 112z"/>
<path style="fill:#573804; stroke:none;" d="M371 112L372 113L371 112M325 113L326 114L325 113z"/>
<path style="fill:#a06708; stroke:none;" d="M326 113L327 114L326 113M368 113L369 114L368 113z"/>
<path style="fill:#573804; stroke:none;" d="M369 113L370 114L369 113M328 114L329 115L328 114z"/>
<path style="fill:#a06708; stroke:none;" d="M329 114L330 115L329 114M366 114L367 115L366 114z"/>
<path style="fill:#573804; stroke:none;" d="M367 114L368 115L367 114M331 115L332 116L331 115z"/>
<path style="fill:#a06708; stroke:none;" d="M363 115L364 116L363 115z"/>
<path style="fill:#573804; stroke:none;" d="M335 116L336 117L335 116z"/>
<path style="fill:#a06708; stroke:none;" d="M336 116L337 117L336 116M359 116L360 117L359 116z"/>
<path style="fill:#573804; stroke:none;" d="M360 116L361 117L360 116M339 117L339 118L342 118L339 117z"/>
<path style="fill:#a06708; stroke:none;" d="M342 117L342 118L353 118L342 117z"/>
<path style="fill:#573804; stroke:none;" d="M353 117L353 118L356 118L353 117z"/>
</svg>
