<svg width="65" height="65" viewBox="0 0 65 65" fill="none" xmlns="http://www.w3.org/2000/svg">
<path d="M65 27.2581H62.6442L59.133 29.1055C58.7378 28.8875 58.3268 28.7027 57.8835 28.5916L53.4667 27.4864V26.9842C55.4207 25.6205 56.6129 23.3676 56.6129 20.9677V19.1351C56.6129 15.0624 53.4217 11.6541 49.4994 11.5353C49.3003 11.5302 49.1042 11.5374 48.9072 11.5471L50.0523 8.86624L44.5007 3.31614L41.228 5.44619C39.9846 4.7459 38.6695 4.20072 37.3037 3.81832L36.4954 0H28.5056L27.6973 3.81934C26.3315 4.20174 25.0154 4.74692 23.773 5.44721L20.5004 3.31716L14.9533 8.86419L16.079 11.5471C16.036 11.5451 15.9951 11.5374 15.9521 11.5364C13.9444 11.478 12.0534 12.2105 10.617 13.605C9.17851 14.9984 8.3871 16.8684 8.3871 18.871V20.9677C8.3871 23.3676 9.57831 25.6194 11.5323 26.9832V27.4864L8.65124 28.2066L3.42927 25.1613H0V46.8851L10.3139 50.3226H12.3226L12.5735 49.4441L15.735 51.3418C15.7867 53.0608 17.1653 54.4439 18.8827 54.5044C18.9431 56.2146 20.3176 57.5891 22.0279 57.6495C22.0883 59.3598 23.4628 60.7343 25.1731 60.7947C25.2355 62.5449 26.6689 63.9516 28.4334 63.9516C29.0886 63.9516 29.7311 63.7474 30.2712 63.3834L31.1998 64.2035C31.7818 64.7159 32.5312 65 33.3093 65H33.5033C35.2479 65 36.6674 63.5897 36.6895 61.8507C38.4151 61.8287 39.8126 60.4312 39.8346 58.7056C41.5613 58.6836 42.9598 57.284 42.9798 55.5573C44.7223 55.5164 46.129 54.0928 46.129 52.3405C46.129 52.2351 46.1239 52.1311 46.1132 52.0262L65 42.5836V27.2581ZM54.5161 19.1351V20.9677C54.5161 22.8285 53.5107 24.567 51.8921 25.5043L51.3679 25.8073L51.372 29.125L56.6098 30.4334L45.0806 36.5016V33.6774C45.0806 32.2681 44.5114 30.9776 43.5792 30.0239L47.1774 29.125V25.8048L46.6542 25.5022C45.0366 24.567 44.0323 22.8285 44.0323 20.9677V18.871C44.0323 17.4412 44.5974 16.1041 45.6248 15.1084C46.6512 14.1133 48.0129 13.5768 49.4365 13.6321C52.2371 13.7161 54.5161 16.185 54.5161 19.1351ZM34.0808 35.6774L29.3349 34.1606C27.1721 33.4675 24.8311 33.3641 22.6171 33.8545L22.0161 33.9876V33.6774C22.0161 32.2318 22.9964 30.9766 24.398 30.6254L30.4032 29.125V25.8048L29.8801 25.5022C28.2624 24.567 27.2581 22.8285 27.2581 20.9677V18.871C27.2581 17.4412 27.8232 16.1041 28.8506 15.1084C29.877 14.1133 31.2474 13.5768 32.6623 13.6321C35.4629 13.7161 37.7419 16.185 37.7419 19.1351V20.9677C37.7419 22.8285 36.7365 24.567 35.1179 25.5043L34.5937 25.8073L34.5978 29.125L40.602 30.6254C42.0036 30.9766 42.9839 32.2318 42.9839 33.6774V37.6058L42.7248 37.7419H42.0824L35.637 35.9001C35.1292 35.7562 34.606 35.6974 34.0808 35.6774ZM22.2511 15.691C24.2199 11.8763 28.1826 9.43548 32.5 9.43548C36.7765 9.43548 40.7223 11.8435 42.7059 15.6065C42.2068 16.6073 41.9355 17.7156 41.9355 18.871V20.9677C41.9355 23.3676 43.1267 25.6194 45.0806 26.9832V27.4864L40.8871 28.5363L36.6925 27.4864V26.9842C38.6465 25.6205 39.8387 23.3676 39.8387 20.9677V19.1351C39.8387 15.0624 36.6475 11.6541 32.7252 11.5353C30.7186 11.4765 28.8265 12.2095 27.3901 13.6039C25.9527 14.9984 25.1613 16.8684 25.1613 18.871V20.9677C25.1613 23.3676 26.3525 25.6194 28.3064 26.9832V27.4864L24.1129 28.5363L19.9183 27.4864V26.9842C21.8723 25.6205 23.0645 23.3676 23.0645 20.9677V19.1351C23.0645 17.9014 22.7676 16.7302 22.2511 15.691ZM17.4294 9.35051L20.7788 6.00109L23.7269 7.91972L24.291 7.57368C25.7044 6.70753 27.232 6.07327 28.8306 5.69088L29.4756 5.53628L30.2051 2.09677H34.7959L35.5233 5.53526L36.1683 5.68934C37.767 6.07225 39.2946 6.7065 40.7079 7.57265L41.272 7.9187L44.2201 6.00007L47.5654 9.34641L46.3763 12.1307C45.567 12.4788 44.8165 12.9687 44.1633 13.6019C44.1203 13.6439 44.0834 13.6889 44.0415 13.7319C41.5715 9.80559 37.2049 7.33871 32.5 7.33871C27.7613 7.33871 23.3824 9.82863 20.9186 13.7949C20.2593 13.1048 19.475 12.5458 18.6058 12.1552L17.4294 9.35051ZM13.629 29.125V25.8048L13.1059 25.5022C11.4882 24.567 10.4839 22.8285 10.4839 20.9677V18.871C10.4839 17.4412 11.049 16.1041 12.0764 15.1084C13.1028 14.1133 14.4675 13.5768 15.8881 13.6321C18.6887 13.7161 20.9677 16.185 20.9677 19.1351V20.9677C20.9677 22.8285 19.9624 24.567 18.3437 25.5043L17.8195 25.8073L17.8236 29.125L21.4208 30.0239C20.4886 30.9776 19.9194 32.2681 19.9194 33.6774V34.4539L16.6493 35.1809L16.7343 34.884L16.7742 32.9464L11.2451 29.7209L13.629 29.125ZM2.09677 27.2581H2.86105L10.4009 31.6559L6.59644 46.8733L2.09677 45.3729V27.2581ZM10.6538 48.2258L8.59032 47.5383L12.2863 32.756L14.6774 34.1504V34.4499L10.7419 48.2258H10.6538ZM17.8226 51.244C17.8226 50.9348 17.9475 50.6318 18.1666 50.4127L20.0094 48.5698C20.2285 48.3507 20.5316 48.2258 20.8408 48.2258C21.4889 48.2258 22.0161 48.7531 22.0161 49.4011C22.0161 49.7103 21.8912 50.0134 21.6721 50.2325L19.8293 52.0754C19.6102 52.2944 19.3071 52.4194 18.9979 52.4194C18.3498 52.4194 17.8226 51.8921 17.8226 51.244ZM20.9677 54.3892C20.9677 54.08 21.0926 53.7769 21.3117 53.5578L23.1546 51.715C23.3737 51.4959 23.6768 51.371 23.9859 51.371C24.634 51.371 25.1613 51.8982 25.1613 52.5463C25.1613 52.8555 25.0364 53.1585 24.8173 53.3776L22.9744 55.2205C22.7553 55.4396 22.4523 55.5645 22.1431 55.5645C21.495 55.5645 20.9677 55.0373 20.9677 54.3892ZM24.1129 57.5343C24.1129 57.2251 24.2378 56.9221 24.4569 56.703L26.2998 54.8601C26.5189 54.641 26.8219 54.5161 27.1311 54.5161C27.7792 54.5161 28.3064 55.0434 28.3064 55.6915C28.3064 56.0007 28.1815 56.3037 27.9624 56.5228L26.1196 58.3657C25.9005 58.5848 25.5974 58.7097 25.2882 58.7097C24.6402 58.7097 24.1129 58.1824 24.1129 57.5343ZM28.4334 61.8548C27.7853 61.8548 27.2581 61.3276 27.2581 60.6795C27.2581 60.3703 27.383 60.0673 27.6021 59.8482L29.4449 58.0053C29.664 57.7862 29.9671 57.6613 30.2763 57.6613C30.9243 57.6613 31.4516 58.1886 31.4516 58.8366C31.4516 59.1458 31.3267 59.4489 31.1076 59.668L29.2647 61.5108C29.0456 61.7299 28.7426 61.8548 28.4334 61.8548ZM33.5033 62.9032H33.3093C33.0421 62.9032 32.7862 62.806 32.587 62.6294L31.8028 61.9378L32.5901 61.1505C32.8711 60.8694 33.0892 60.5351 33.2505 60.1763L34.2036 60.9697C34.4529 61.1776 34.5968 61.4837 34.5968 61.8098C34.5968 62.4128 34.1064 62.9032 33.5033 62.9032ZM42.905 53.4677H42.7238C42.4607 53.4677 42.2037 53.3746 42.0025 53.2056L36.3173 48.4679L34.974 50.0794L40.495 54.6794C40.7432 54.8873 40.8871 55.1934 40.8871 55.5195C40.8871 56.1225 40.3967 56.6129 39.7937 56.6129H39.5648C39.3104 56.6129 39.0616 56.5228 38.8656 56.359L33.1711 51.6141L31.8279 53.2256L37.3488 57.8261C37.5981 58.0324 37.7419 58.3385 37.7419 58.6646C37.7419 59.2677 37.2515 59.7581 36.6485 59.7581C36.2461 59.7581 35.854 59.6152 35.5453 59.3588L33.2054 57.4084C32.6899 56.3549 31.6308 55.6203 30.3904 55.5763C30.33 53.866 28.9555 52.4915 27.2453 52.4311C27.1849 50.7208 25.8104 49.3464 24.1001 49.286C24.0387 47.5358 22.6053 46.129 20.8408 46.129C19.9792 46.129 19.1361 46.4781 18.527 47.0873L16.6841 48.9302C16.574 49.0402 16.4829 49.1652 16.3903 49.289L13.1699 47.3566L15.993 37.4757L23.0707 35.9021C24.9273 35.487 26.8849 35.5771 28.6955 36.1566L30.2399 36.6505L25.0041 39.2684C23.8078 39.8679 23.0645 41.0714 23.0645 42.4095V42.6168C23.0645 44.5534 24.6402 46.129 26.5767 46.129C27.213 46.129 27.8391 45.956 28.3832 45.6279L32.287 43.2869C33.0713 42.817 34.1238 42.9199 34.801 43.529L43.6591 51.501C43.8961 51.716 44.0323 52.0211 44.0323 52.3405C44.0323 52.9625 43.527 53.4677 42.905 53.4677ZM62.9032 41.2874L45.2409 50.1194C45.1835 50.0584 45.1236 50.0006 45.0607 49.9443L36.2042 41.9723C35.4281 41.272 34.4248 40.8871 33.3795 40.8871C32.6152 40.8871 31.8647 41.0949 31.2074 41.4891L27.3021 43.8311C27.083 43.9632 26.8327 44.0323 26.5767 44.0323C25.7955 44.0323 25.1613 43.398 25.1613 42.6168V42.4095C25.1613 41.8694 25.4613 41.3852 25.9435 41.1441L31.7915 38.2201C32.7923 37.7189 33.9804 37.6068 35.059 37.917L41.6473 39.7988L43.2429 39.8387L62.9032 29.491V41.2874Z" fill="#00B4DB"/>
</svg>
