<svg width="65" height="65" viewBox="0 0 65 65" fill="none" xmlns="http://www.w3.org/2000/svg">
<path d="M1.26953 21.582H5.83984C6.54101 21.582 7.10938 21.0137 7.10938 20.3125C7.10938 19.6113 6.54101 19.043 5.83984 19.043H1.26953C0.568369 19.043 0 19.6113 0 20.3125C0 21.0137 0.568369 21.582 1.26953 21.582Z" fill="#00B4DB"/>
<path d="M63.7305 19.043H59.1602C58.459 19.043 57.8906 19.6113 57.8906 20.3125C57.8906 21.0137 58.459 21.582 59.1602 21.582H63.7305C64.4316 21.582 65 21.0137 65 20.3125C65 19.6113 64.4316 19.043 63.7305 19.043Z" fill="#00B4DB"/>
<path d="M10.5107 33.0081C10.16 32.4007 9.38358 32.1928 8.77649 32.5434L5.47825 34.4477C4.87103 34.7982 4.66296 35.5747 5.0136 36.1819C5.3659 36.792 6.14348 36.9954 6.74778 36.6465L10.046 34.7422C10.6532 34.3917 10.8613 33.6153 10.5107 33.0081Z" fill="#00B4DB"/>
<path d="M56.2239 8.08209L59.5221 6.17779C60.1293 5.82727 60.3374 5.05083 59.9867 4.44361C59.636 3.83627 58.8597 3.62832 58.2526 3.97896L54.9543 5.88326C54.3471 6.23378 54.139 7.01022 54.4897 7.61744C54.842 8.22757 55.6196 8.43095 56.2239 8.08209Z" fill="#00B4DB"/>
<path d="M5.47825 6.1777L8.77649 8.082C9.38104 8.431 10.1586 8.22724 10.5107 7.61735C10.8613 7.01014 10.6532 6.23369 10.046 5.88317L6.74778 3.97888C6.14082 3.62836 5.36425 3.83631 5.0136 4.44353C4.66296 5.05074 4.87103 5.82719 5.47825 6.1777Z" fill="#00B4DB"/>
<path d="M54.9543 34.7422L58.2526 36.6465C58.8571 36.9955 59.6347 36.7917 59.9867 36.1818C60.3374 35.5746 60.1293 34.7981 59.5221 34.4476L56.2239 32.5433C55.6169 32.1928 54.8403 32.4008 54.4897 33.008C54.139 33.6152 54.3471 34.3916 54.9543 34.7422Z" fill="#00B4DB"/>
<path d="M23.6133 38.5597V46.9727C23.6133 47.6739 24.1817 48.2422 24.8828 48.2422H27.4219V54.0821H24.8828C24.1817 54.0821 23.6133 54.6505 23.6133 55.3516C23.6133 56.0528 24.1817 56.6212 24.8828 56.6212H27.4219V59.9219C27.4219 62.722 29.6999 65.0001 32.5 65.0001C35.3001 65.0001 37.5781 62.722 37.5781 59.9219V56.6212H40.1172C40.8183 56.6212 41.3867 56.0528 41.3867 55.3516C41.3867 54.6505 40.8183 54.0821 40.1172 54.0821H37.5781V48.2422H40.1172C40.8183 48.2422 41.3867 47.6739 41.3867 46.9727V38.5597C48.355 35.1635 52.8125 28.091 52.8125 20.3126C52.8125 11.0781 46.6894 3.44189 38.5256 0.909171C37.8562 0.701476 37.1447 1.07586 36.9369 1.74554C36.7291 2.41509 37.1036 3.12641 37.7733 3.33423C45.25 5.65379 50.2734 12.4769 50.2734 20.3126C50.2734 27.3618 46.087 33.7491 39.6081 36.5853C39.1461 36.7875 38.8477 37.2439 38.8477 37.7483V45.7032H33.7695V29.6733C35.9573 29.1081 37.5781 27.1178 37.5781 24.7559C37.5781 21.9558 35.3001 19.6778 32.5 19.6778C31.1 19.6778 29.9609 18.5388 29.9609 17.1387C29.9609 15.7387 31.1 14.5997 32.5 14.5997C33.9 14.5997 35.0391 15.7387 35.0391 17.1387C35.0391 17.8399 35.6074 18.4083 36.3086 18.4083C37.0098 18.4083 37.5781 17.8399 37.5781 17.1387C37.5781 14.7769 35.9573 12.7865 33.7695 12.2213V10.7911C33.7695 10.0899 33.2012 9.52154 32.5 9.52154C31.7988 9.52154 31.2305 10.0899 31.2305 10.7911V12.2213C29.0427 12.7865 27.4219 14.7769 27.4219 17.1387C27.4219 19.9388 29.6999 22.2169 32.5 22.2169C33.9 22.2169 35.0391 23.3559 35.0391 24.7559C35.0391 26.156 33.9 27.295 32.5 27.295C31.1 27.295 29.9609 26.156 29.9609 24.7559C29.9609 24.0548 29.3926 23.4864 28.6914 23.4864C27.9902 23.4864 27.4219 24.0548 27.4219 24.7559C27.4219 27.1178 29.0427 29.1081 31.2305 29.6733V45.7032H26.1523V37.7483C26.1523 37.244 25.8539 36.7875 25.3919 36.5853C18.913 33.7491 14.7266 27.3618 14.7266 20.3126C14.7266 12.4769 19.75 5.65379 27.2266 3.33423C27.8963 3.12653 28.2708 2.41522 28.063 1.74554C27.8553 1.07599 27.1442 0.701349 26.4743 0.909171C18.3149 3.44049 12.1875 11.0737 12.1875 20.3126C12.1875 28.091 16.645 35.1635 23.6133 38.5597ZM35.0391 59.9219C35.0391 61.322 33.9 62.461 32.5 62.461C31.1 62.461 29.9609 61.322 29.9609 59.9219V56.6212H35.0391V59.9219ZM35.0391 54.0821H29.9609V48.2422H35.0391V54.0821Z" fill="#00B4DB"/>
<path d="M32.5 2.53906C33.2011 2.53906 33.7695 1.97067 33.7695 1.26953C33.7695 0.568388 33.2011 0 32.5 0C31.7989 0 31.2305 0.568388 31.2305 1.26953C31.2305 1.97067 31.7989 2.53906 32.5 2.53906Z" fill="#00B4DB"/>
</svg>
