<svg width="65" height="66" viewBox="0 0 65 66" fill="none" xmlns="http://www.w3.org/2000/svg">
<path d="M62.7779 5.1007L61.4736 3.79639L2.84166 62.4284L4.14597 63.7327L62.7779 5.1007Z" fill="white" fill-opacity="0.5"/>
<path d="M45.5548 11.6446L44.2505 10.3403L2.06218 52.5286L3.36649 53.833L45.5548 11.6446Z" fill="white" fill-opacity="0.5"/>
<path d="M42.9801 3.4923L41.6758 2.18799L-0.000124623 43.8639L1.30419 45.1682L42.9801 3.4923Z" fill="white" fill-opacity="0.5"/>
<path d="M34.7325 1.30431L33.4282 0L1.58125 31.847L2.88556 33.1513L34.7325 1.30431Z" fill="white" fill-opacity="0.5"/>
<path d="M64.3195 24.7377L63.0151 23.4333L22.7988 63.6497L24.1031 64.954L64.3195 24.7377Z" fill="white" fill-opacity="0.5"/>
<path d="M54.129 23.8733L52.8247 22.569L12.6084 62.7853L13.9127 64.0896L54.129 23.8733Z" fill="white" fill-opacity="0.5"/>
<path d="M63.3263 35.9874L62.022 34.6831L33.001 63.7041L34.3053 65.0084L63.3263 35.9874Z" fill="white" fill-opacity="0.5"/>
<path d="M20.1793 7.97643L20.2732 8.43696L20.7286 8.55324C21.686 8.79767 22.5892 9.18657 23.417 9.66254L23.8184 9.89337L24.2046 9.63788L27.0594 7.74936L27.0594 7.74946L27.0704 7.74188C27.0893 7.7289 27.1099 7.72354 27.1353 7.7264C27.1637 7.7296 27.1923 7.74309 27.2132 7.76398L27.7435 7.23365L27.2132 7.76398L28.2892 8.83999L29.3652 9.916C29.3861 9.93689 29.3996 9.96546 29.4028 9.99393C29.4057 10.0193 29.4003 10.0399 29.3873 10.0587L29.3872 10.0587L29.3798 10.0698L27.4913 12.9246L27.2336 13.3141L27.4696 13.7173C27.9608 14.5565 28.3302 15.4587 28.5769 16.4044L28.6949 16.8566L29.1528 16.9499L32.486 17.6297C32.4865 17.6298 32.487 17.6299 32.4875 17.63C32.529 17.6391 32.5535 17.658 32.5678 17.6754C32.5823 17.6931 32.5932 17.7177 32.5932 17.7522V19.2894V20.8266C32.5932 20.8611 32.5823 20.8857 32.5678 20.9034C32.5535 20.9208 32.529 20.9397 32.4874 20.9487C32.4869 20.9489 32.4865 20.949 32.486 20.9491L29.1528 21.6288L28.6922 21.7228L28.576 22.1782C28.3315 23.1355 27.9426 24.0388 27.4667 24.8666L27.2358 25.268L27.4913 25.6542L29.3798 28.5089L29.3797 28.509L29.3873 28.52C29.4003 28.5389 29.4057 28.5595 29.4028 28.5849C29.3996 28.6133 29.3861 28.6419 29.3652 28.6628L28.2892 29.7388L27.2132 30.8148C27.1923 30.8357 27.1637 30.8492 27.1353 30.8524C27.1099 30.8552 27.0893 30.8499 27.0704 30.8369L27.0705 30.8368L27.0594 30.8294L24.2046 28.9409L23.8151 28.6832L23.4119 28.9192C22.5727 29.4104 21.6705 29.7798 20.7248 30.0265L20.2726 30.1445L20.1793 30.6024L19.4995 33.9356C19.4994 33.936 19.4993 33.9365 19.4992 33.937C19.4901 33.9786 19.4712 34.0031 19.4538 34.0174C19.4361 34.0319 19.4115 34.0428 19.377 34.0428H17.8398H16.3026C16.2681 34.0428 16.2435 34.0319 16.2258 34.0174C16.2084 34.0031 16.1895 33.9786 16.1805 33.937C16.1803 33.9366 16.1802 33.9361 16.1801 33.9356L15.5004 30.6024L15.407 30.1445L14.9548 30.0265C14.0137 29.781 13.0873 29.3904 12.2626 28.9162L11.8612 28.6854L11.475 28.9409L8.62026 30.8294L8.62019 30.8293L8.60916 30.8369C8.59028 30.8499 8.56974 30.8552 8.54435 30.8524C8.51588 30.8492 8.48731 30.8357 8.46642 30.8148L7.3904 29.7388L6.31439 28.6628C6.2935 28.6419 6.28002 28.6133 6.27681 28.5848C6.27395 28.5595 6.27932 28.5389 6.2923 28.52L6.29239 28.5201L6.29978 28.5089L8.18829 25.6542L8.44601 25.2646L8.21004 24.8615C7.71877 24.0223 7.34938 23.1201 7.10268 22.1744L6.98472 21.7222L6.52684 21.6288L3.19364 20.9491C3.19315 20.949 3.19267 20.9489 3.19219 20.9487C3.15062 20.9397 3.12607 20.9208 3.11178 20.9034C3.09732 20.8857 3.08643 20.8611 3.08643 20.8266V19.2894V17.7522C3.08643 17.7177 3.09732 17.6931 3.11178 17.6754C3.12606 17.658 3.15061 17.6391 3.19215 17.63L6.52684 16.9499L6.98738 16.856L7.10366 16.4006C7.34809 15.4432 7.73699 14.54 8.21296 13.7122L8.44379 13.3108L8.18829 12.9246L6.29978 10.0698L6.29988 10.0698L6.2923 10.0587C6.27932 10.0399 6.27395 10.0193 6.27681 9.99393C6.28002 9.96547 6.2935 9.93689 6.31439 9.916L7.3904 8.83999L8.46642 7.76398C8.48731 7.74309 8.51588 7.7296 8.54435 7.7264C8.56974 7.72354 8.59029 7.7289 8.60916 7.74188L8.6091 7.74198L8.62026 7.74936L11.475 9.63788L11.8646 9.89559L12.2677 9.65962C13.1069 9.16835 14.0091 8.79896 14.9548 8.55226L15.407 8.43431L15.5004 7.97643L16.1805 4.64174C16.1895 4.60019 16.2084 4.57565 16.2258 4.56137C16.2435 4.5469 16.2681 4.53601 16.3026 4.53601H17.8398H19.377C19.4115 4.53601 19.4361 4.5469 19.4538 4.56137C19.4712 4.57565 19.4901 4.60021 19.4992 4.64178C19.4993 4.64226 19.4994 4.64274 19.4995 4.64322L20.1793 7.97643ZM24.7385 19.3113C24.7385 15.5171 21.6595 12.4127 17.8398 12.4127C14.0219 12.4127 10.9412 15.4934 10.9412 19.3113C10.9412 23.1056 14.0201 26.21 17.8398 26.21C21.634 26.21 24.7385 23.131 24.7385 19.3113Z" stroke="#00B4DB" stroke-width="1.5"/>
<path d="M53.0962 6.81119L53.1877 7.26466L53.634 7.38638C54.3017 7.56849 54.9422 7.82976 55.5162 8.16625L55.9177 8.40161L56.3069 8.14636L58.2632 6.86315L58.9665 7.56645L59.6699 8.26975L58.3866 10.2261L58.1314 10.6153L58.3667 11.0168C58.7055 11.5947 58.9649 12.2124 59.1452 12.8936L59.2645 13.3445L59.7218 13.4368L62.0188 13.9005V14.8976V15.8948L59.7218 16.3584L59.2683 16.4499L59.1466 16.8962C58.9645 17.5639 58.7032 18.2044 58.3667 18.7785L58.1314 19.1799L58.3866 19.5691L59.6699 21.5255L58.9665 22.2288L58.2632 22.9321L56.3069 21.6489L55.9177 21.3936L55.5162 21.629C54.9383 21.9678 54.3206 22.2271 53.6394 22.4074L53.1885 22.5268L53.0962 22.984L52.6325 25.2811H51.6354H50.6382L50.1746 22.984L50.0831 22.5306L49.6368 22.4088C48.9691 22.2267 48.3286 21.9655 47.7546 21.629L47.3531 21.3936L46.9639 21.6489L45.0075 22.9321L44.3042 22.2288L43.6009 21.5255L44.8842 19.5691L45.1394 19.1799L44.904 18.7785C44.5652 18.2005 44.3059 17.5828 44.1256 16.9016L44.0063 16.4507L43.549 16.3584L41.252 15.8948V14.8976V13.9005L43.549 13.4368L44.0025 13.3453L44.1242 12.899C44.3063 12.2313 44.5675 11.5908 44.904 11.0168L45.1394 10.6153L44.8842 10.2261L43.6009 8.26975L44.3042 7.56645L45.0075 6.86315L46.9639 8.14636L47.3531 8.40161L47.7546 8.16625C48.3325 7.82745 48.9502 7.56815 49.6314 7.38784L50.0823 7.26847L50.1746 6.81119L50.6382 4.51416H51.6354H52.6325L53.0962 6.81119ZM43.5357 8.33503L43.5358 8.33493L43.5357 8.33503ZM56.7773 14.8537C56.7773 12.0264 54.4895 9.7118 51.6354 9.7118C48.8056 9.7118 46.4935 12.0239 46.4935 14.8537C46.4935 17.6834 48.8056 19.9956 51.6354 19.9956C54.4651 19.9956 56.7773 17.6834 56.7773 14.8537Z" stroke="#00B4DB" stroke-width="1.5"/>
<path d="M47.4528 32.132L47.5456 32.5864L47.9935 32.7064C49.1636 33.0198 50.2852 33.4777 51.2971 34.0767L51.7002 34.3152L52.0915 34.0577L55.5611 31.7739L55.5611 31.774L55.5722 31.7664C55.6693 31.7 55.8273 31.6918 55.9678 31.8194L57.2755 33.1271L57.8058 32.5968L57.2755 33.1271L58.5931 34.4447C58.6932 34.5448 58.7187 34.7012 58.6276 34.8432C58.6271 34.8438 58.6267 34.8445 58.6263 34.8451L56.3461 38.2873L56.0866 38.6791L56.3259 39.0835C56.9248 40.0954 57.3828 41.2171 57.6962 42.3871L57.8161 42.8345L58.2698 42.9277L62.3239 43.7604C62.3249 43.7606 62.3259 43.7608 62.327 43.7611C62.5059 43.8012 62.5896 43.9289 62.5896 44.0596V45.9262V47.7927C62.5896 47.9489 62.4852 48.0632 62.3547 48.0859L62.3434 48.0878L62.3323 48.0901L58.2698 48.9246L57.8161 49.0178L57.6962 49.4652C57.3828 50.6352 56.9248 51.7569 56.3259 52.7688L56.0874 53.1719L56.3449 53.5632L58.6287 57.0328L58.6286 57.0328L58.6362 57.0439C58.7026 57.141 58.7108 57.2989 58.5832 57.4395L57.2755 58.7472L55.9579 60.0647C55.8577 60.1649 55.7013 60.1903 55.5594 60.0992C55.5587 60.0988 55.5581 60.0984 55.5575 60.098L52.1153 57.8178L51.7235 57.5583L51.3191 57.7976C50.3072 58.3965 49.1855 58.8545 48.0155 59.1679L47.5681 59.2878L47.4749 59.7415L46.6422 63.7955C46.642 63.7966 46.6417 63.7977 46.6415 63.7987C46.6013 63.9776 46.4736 64.0613 46.343 64.0613H44.4545H42.5879C42.4318 64.0613 42.3174 63.9569 42.2947 63.8264L42.2928 63.8151L42.2905 63.804L41.456 59.7415L41.3628 59.2878L40.9154 59.1679C39.7454 58.8545 38.6237 58.3965 37.6118 57.7976L37.2087 57.559L36.8175 57.8166L33.3479 60.1004L33.3478 60.1003L33.3367 60.1078C33.2396 60.1743 33.0817 60.1824 32.9412 60.0549L31.6334 58.7472L31.1031 59.2775L31.6334 58.7472L30.3159 57.4296C30.2155 57.3293 30.1902 57.1725 30.2818 57.0304C30.2821 57.03 30.2823 57.0296 30.2826 57.0291L32.564 53.5632L32.8216 53.1719L32.583 52.7688C31.9841 51.7569 31.5261 50.6352 31.2127 49.4652L31.0929 49.0178L30.6392 48.9246L26.5818 48.0912C26.403 48.051 26.3193 47.9234 26.3193 47.7927V45.9262V44.0596C26.3193 43.9034 26.4237 43.7891 26.5543 43.7664L26.5655 43.7645L26.5767 43.7622L30.6392 42.9277L31.0929 42.8345L31.2127 42.3871C31.5261 41.2171 31.9841 40.0954 32.583 39.0835L32.8216 38.6804L32.564 38.2891L30.2803 34.8195L30.2804 34.8195L30.2728 34.8084C30.2064 34.7113 30.1982 34.5534 30.3257 34.4128L31.6334 33.1051L32.951 31.7876C33.0513 31.6872 33.208 31.6619 33.3501 31.7534C33.3506 31.7537 33.351 31.754 33.3515 31.7543L36.8174 34.0357L37.2087 34.2933L37.6118 34.0547C38.6237 33.4558 39.7454 32.9978 40.9154 32.6844L41.3628 32.5646L41.456 32.1108L42.2894 28.0536C42.3295 27.8747 42.4572 27.791 42.5879 27.791H44.4545H46.321C46.4772 27.791 46.5915 27.8954 46.6142 28.0259L46.6161 28.0368L46.6183 28.0476L47.4528 32.132ZM52.6707 45.9262C52.6707 41.3836 48.9971 37.7099 44.4545 37.7099C39.9119 37.7099 36.2383 41.3836 36.2383 45.9262C36.2383 50.4687 39.9119 54.1424 44.4545 54.1424C48.9971 54.1424 52.6707 50.4687 52.6707 45.9262Z" stroke="#00B4DB" stroke-width="1.5"/>
</svg>
