<svg width="65" height="65" viewBox="0 0 65 65" fill="none" xmlns="http://www.w3.org/2000/svg">
<path d="M6.09375 40.6244H8.12497V58.9053H6.09375V40.6244Z" fill="#00B4DB"/>
<path d="M10.1562 40.6244H12.1875V58.9053H10.1562V40.6244Z" fill="#00B4DB"/>
<path d="M14.2188 40.6243H16.25V58.9052H14.2188V40.6243Z" fill="#00B4DB"/>
<path d="M18.2808 54.8428H20.312V58.9052H18.2808V54.8428Z" fill="#00B4DB"/>
<path d="M22.3433 54.8428H24.3745V58.9052H22.3433V54.8428Z" fill="#00B4DB"/>
<path d="M61.295 47.6319L58.2735 44.8712C58.2988 44.4844 58.3122 44.1026 58.3122 43.7287C58.3122 43.3553 58.2988 42.9734 58.2735 42.5871L61.9114 39.2621L60.5487 35.0791L55.6551 34.5307C55.249 33.888 54.8012 33.2726 54.3147 32.6884L55.303 27.8643L51.742 25.2692L47.4574 27.6957C46.7497 27.4105 46.0242 27.173 45.2848 26.9845L43.2283 22.452H38.8683L36.8118 26.9845C36.0724 27.173 35.3469 27.4105 34.6393 27.6957L33.5151 27.0599V0H0V64.9989H33.5151V60.3969L34.6403 59.7592C35.3474 60.0444 36.0729 60.2819 36.8118 60.4703L38.8683 64.9989H43.2263L45.2828 60.4659C46.0222 60.2774 46.7477 60.0399 47.4554 59.7553L50.9431 61.7304C53.8972 63.9942 57.9626 64.1341 61.0654 62.0791L62.2844 61.2747L56.6271 57.1319L59.0883 53.7722L64.6141 57.8202L64.8834 56.1902C65.4284 52.8845 64.0349 49.5585 61.296 47.6289L61.295 47.6319ZM34.5133 29.9604L34.9785 29.7571C35.8711 29.3683 36.7994 29.0663 37.7501 28.8551L38.246 28.7455L40.1755 24.4892H41.9132L43.8427 28.7455L44.3386 28.8551C45.2893 29.0663 46.2171 29.3683 47.1102 29.7571L47.5754 29.9604L51.678 27.6376C52.1526 27.9535 52.6157 28.2907 53.0616 28.6463L52.1139 33.2671L52.4501 33.647C53.0958 34.376 53.6705 35.1654 54.1654 36.004L54.4233 36.4399L59.1126 36.9631C59.3154 37.4942 59.4885 38.0352 59.6397 38.5817L56.1629 41.7639L56.212 42.2717C56.2586 42.7671 56.282 43.2586 56.282 43.7321C56.282 44.2052 56.2586 44.6967 56.212 45.1926L56.1629 45.7004L56.5299 46.0361C56.4282 46.0361 56.338 46.0212 56.2393 46.0212C54.9926 46.0212 53.7603 46.287 52.6247 46.8013L50.0857 45.0433C50.6044 41.6082 49.1216 38.178 46.2642 36.2029C43.4073 34.2272 39.6747 34.0511 36.6442 35.7491L34.3745 34.1801C34.6651 32.682 34.549 31.1333 34.0392 29.6951L34.5133 29.9604ZM48.1561 43.7034L38.5758 37.0806C40.7508 36.2529 43.1936 36.549 45.1078 37.8721C47.022 39.1956 48.162 41.3766 48.1561 43.7034ZM2.03122 2.03122H31.4839V8.12487H12.1873V6.09365H2.03122V2.03122ZM2.03122 8.12487H10.1561V10.1561H2.03122V8.12487ZM2.03122 12.1873H12.1873V10.1561H31.4839V18.2809H12.1873V16.2497H2.03122V12.1873ZM2.03122 18.2809H10.1561V20.3122H2.03122V18.2809ZM31.4839 62.9677H2.03122V22.3434H12.1873V20.3122H31.4839V25.9089L31.4219 25.8747C28.4584 23.356 24.1866 23.1001 20.9439 25.2469L19.725 26.0512L25.3823 30.194L22.9211 33.5537L17.3972 29.5052L17.1285 31.1352C16.5869 34.4102 17.9507 37.7084 20.6464 39.6449L20.6271 39.6672L23.8202 42.5861C23.7959 42.9695 23.7825 43.3513 23.7825 43.7277C23.7825 44.1046 23.7959 44.4874 23.8202 44.8693L20.1822 48.1943L20.3256 48.7785C20.579 49.8174 20.9102 50.8359 21.3164 51.8253L21.546 52.3807L26.4415 52.9262C26.8477 53.5689 27.2955 54.1843 27.7819 54.7685L26.7936 59.5926L27.2518 59.9829C28.0681 60.6752 28.9344 61.3064 29.8434 61.8708L30.3512 62.1877L31.4839 61.5455V62.9677ZM47.5813 57.4964L47.1162 57.6997C46.2236 58.089 45.2952 58.391 44.3446 58.6013L43.8487 58.7124L41.9162 62.9677H40.1785L38.249 58.7124L37.7501 58.6003C36.7994 58.39 35.8716 58.088 34.9795 57.6987L34.5143 57.4954L30.4112 59.8192C29.9376 59.5043 29.4759 59.1681 29.0272 58.8106L29.9748 54.1897L29.6386 53.8099C28.9929 53.0809 28.4187 52.2919 27.9233 51.4538L27.6654 51.017L22.9762 50.4938C22.7728 49.9637 22.6012 49.4226 22.449 48.8752L25.9317 45.692L25.8826 45.1842C25.837 44.6957 25.8137 44.2042 25.8137 43.7237C25.8137 43.2432 25.837 42.7527 25.8826 42.2633L25.9317 41.7555L25.4239 41.2903C25.5395 41.2903 25.654 41.3077 25.772 41.3077C26.9964 41.3072 28.2074 41.0503 29.3267 40.5539L32.016 42.4135C31.9515 42.846 31.9173 43.2824 31.9143 43.7197C31.9004 46.956 33.6058 49.9562 36.3938 51.5996C39.1822 53.2431 42.6332 53.2822 45.4574 51.7023L47.6329 53.2054C47.5645 53.5877 47.5218 53.9745 47.506 54.3623C47.4951 54.5046 47.4866 54.6415 47.4866 54.7685C47.4866 55.0511 47.503 55.3303 47.5293 55.6065C47.5367 55.6889 47.5506 55.7677 47.561 55.848C47.5838 56.0474 47.6136 56.2443 47.6503 56.4392C47.6666 56.5205 47.686 56.6008 47.7043 56.6821C47.7475 56.8805 47.7976 57.0759 47.8546 57.2678C47.8749 57.3328 47.8943 57.3977 47.9156 57.4617C47.9429 57.5495 47.9652 57.6377 47.9954 57.723L47.5813 57.4964ZM33.9396 43.7535L43.5189 50.3738C41.3444 51.2019 38.9016 50.9059 36.9874 49.5828C35.0732 48.2597 33.9336 46.0793 33.9396 43.7525V43.7535ZM58.6484 50.9366L53.7876 57.5728L58.5795 61.0828C56.3553 61.9065 53.8619 61.4969 52.0187 60.0052C51.8833 59.8966 51.7573 59.7805 51.6324 59.664C51.5545 59.5896 51.4762 59.5157 51.4008 59.4374C51.2738 59.3055 51.1499 59.1711 51.0353 59.0312C50.954 58.9296 50.8801 58.8279 50.8047 58.7263C50.7447 58.6439 50.6827 58.5616 50.6262 58.4763C50.5528 58.3657 50.4858 58.2512 50.4229 58.1351C50.3723 58.0489 50.3212 57.9626 50.2766 57.8733C50.2166 57.7583 50.161 57.6407 50.107 57.5217C50.0633 57.4205 50.0227 57.3258 49.983 57.2252C49.9433 57.125 49.8947 56.9965 49.856 56.879C49.8174 56.761 49.7861 56.6445 49.7549 56.5264C49.7231 56.4089 49.6959 56.3142 49.6726 56.2066C49.6408 56.0603 49.6185 55.911 49.5962 55.7627C49.5838 55.6765 49.5669 55.5912 49.5565 55.5039C49.5302 55.2619 49.5168 55.0189 49.5159 54.7759C49.5159 54.6306 49.5362 54.4823 49.5466 54.335C49.5808 54.0117 49.6388 53.6383 49.6949 53.3194C49.7172 53.2237 49.7271 53.1285 49.7524 53.0328L49.9384 52.3425L29.4799 38.2018L28.9334 38.4934C26.9587 39.5452 24.5898 39.5457 22.6141 38.4954C20.6385 37.4446 19.3149 35.4803 19.0823 33.2547L23.359 36.3923L28.2228 29.7571L23.4309 26.2481C25.7993 25.3609 28.4658 25.8797 30.3284 27.591C32.1905 29.3019 32.9334 31.9148 32.2495 34.3497L32.0566 35.0444L52.4764 49.1553L53.0259 48.8504C55.002 47.7777 57.3829 47.7628 59.3729 48.8097C61.3625 49.857 62.6979 51.8287 62.932 54.0648L58.6484 50.9366Z" fill="#00B4DB"/>
</svg>
