<svg xmlns="http://www.w3.org/2000/svg" xmlns:xlink="http://www.w3.org/1999/xlink" xmlns:serif="http://www.serif.com/" viewBox="0 0 67 83.75" version="1.1" xml:space="preserve" style="" x="0px" y="0px" fill-rule="evenodd" clip-rule="evenodd" stroke-linejoin="round" stroke-miterlimit="2"><g><path d="M7.333,25.985l-3.166,-0c-0.369,-0 -0.708,-0.203 -0.882,-0.529c-0.174,-0.325 -0.155,-0.719 0.05,-1.026l8.333,-12.5c0.185,-0.278 0.498,-0.445 0.832,-0.445l16.268,-0l3.858,-3.859c0.391,-0.39 1.024,-0.39 1.414,0l3.859,3.859c0.003,-0 0.007,-0 0.011,-0l16.257,-0c0.334,-0 0.646,0.167 0.832,0.445l8.333,12.5c0.205,0.307 0.224,0.701 0.05,1.026c-0.174,0.326 -0.513,0.529 -0.882,0.529l-3.167,-0l0,27.147l3.167,-0c0.552,-0 1,0.447 1,1l0,4.201c0,0.553 -0.448,1 -1,1l-58.333,0c-0.553,0 -1,-0.447 -1,-1l-0,-4.201c-0,-0.553 0.447,-1 1,-1l3.166,-0l0,-27.147Zm19.435,-12.5l-13.733,-0l-7,10.5l10.233,-0l10.5,-10.5Zm13.131,-0l10.5,10.5l10.232,-0c0,-0 -7,-10.5 -6.999,-10.5l-13.733,-0Zm-26.316,39.682l0,-27.182l-4.25,-0l0,27.182l4.25,-0Zm47.917,1.965c0,-0 -56.333,-0 -56.333,-0l-0,2.201c-0,0 56.333,0 56.333,0c0,0 0,-2.202 0,-2.201Zm-8.417,-1.965l4.25,-0l0,-27.182l-4.25,-0l0,27.182Zm-5.497,-29.167l-14.253,-14.252l-14.252,14.252l2.38,-0l11.165,-11.165c0.391,-0.391 1.024,-0.391 1.414,-0l11.166,11.165l2.38,0Zm-14.795,26.695c-3.514,-2.266 -7.436,-3.487 -11.916,-3.3c-0.272,0.011 -0.537,-0.089 -0.734,-0.277c-0.197,-0.189 -0.308,-0.45 -0.308,-0.722l0,-17.295c0,-0.527 0.409,-0.963 0.934,-0.998c5.114,-0.339 9.402,0.622 12.566,3.142c3.164,-2.52 7.453,-3.481 12.566,-3.142c0.526,0.035 0.934,0.471 0.934,0.998l0,17.295c0,0.272 -0.111,0.533 -0.307,0.722c-0.197,0.188 -0.462,0.288 -0.734,0.277c-4.48,-0.187 -8.403,1.034 -11.917,3.3c-0.02,0.014 -0.042,0.026 -0.063,0.038c-0.298,0.163 -0.659,0.163 -0.957,0c-0.022,-0.012 -0.043,-0.024 -0.064,-0.038Zm1.543,-2.599c3.173,-1.738 6.646,-2.71 10.499,-2.72c0,0 0,-15.324 0,-15.325c-4.268,-0.144 -7.86,0.727 -10.499,2.96c-0,2.514 -0.001,12.571 -0,15.085Zm-3.685,-14.521c0.456,0.311 0.574,0.934 0.262,1.39c-0.311,0.455 -0.934,0.573 -1.389,0.261c-1.221,-0.834 -3.504,-1.416 -5.474,-1.357c-0.552,0.017 -1.013,-0.418 -1.03,-0.969c-0.016,-0.552 0.418,-1.013 0.97,-1.03c2.403,-0.072 5.173,0.688 6.661,1.705Zm0.022,3.554c0.447,0.323 0.548,0.949 0.225,1.396c-0.323,0.448 -0.948,0.549 -1.396,0.226c-1.231,-0.889 -3.49,-1.491 -5.452,-1.432c-0.552,0.016 -1.013,-0.418 -1.03,-0.97c-0.016,-0.551 0.418,-1.013 0.97,-1.029c2.41,-0.072 5.171,0.718 6.683,1.809Zm-6.698,1.854c3.266,-0.146 5.237,0.713 6.771,1.806c0.263,0.188 0.42,0.491 0.42,0.814l-0,3.253c-0,0.349 -0.182,0.673 -0.481,0.854c-0.298,0.182 -0.67,0.194 -0.98,0.033c-1.454,-0.753 -3.655,-1.548 -5.666,-1.509c-0.269,0.005 -0.528,-0.098 -0.72,-0.286c-0.191,-0.188 -0.299,-0.446 -0.299,-0.714l-0,-3.252c-0,-0.535 0.421,-0.976 0.955,-0.999Zm1.045,1.989c-0,0 -0,1.298 -0.001,1.298c1.437,0.123 2.899,0.537 4.147,1.034c-0,-0 -0,-1.167 -0.001,-1.167c-1.023,-0.639 -2.303,-1.111 -4.145,-1.165Zm12.169,-4.634c-0.385,0.396 -1.019,0.406 -1.415,0.021c-0.395,-0.384 -0.405,-1.018 -0.02,-1.414c1.517,-1.562 4.263,-2.789 7.049,-2.644c0.551,0.029 0.976,0.499 0.947,1.05c-0.029,0.552 -0.5,0.976 -1.051,0.947c-2.174,-0.113 -4.326,0.821 -5.51,2.04Zm0.031,4.259c-0.366,0.413 -0.999,0.451 -1.412,0.085c-0.413,-0.366 -0.451,-0.999 -0.085,-1.412c1.825,-2.06 4.282,-3 7.08,-2.854c0.551,0.028 0.976,0.499 0.947,1.05c-0.029,0.551 -0.5,0.976 -1.051,0.947c-2.162,-0.113 -4.069,0.592 -5.479,2.184Zm0.075,4.35c-0.313,0.455 -0.936,0.57 -1.391,0.257c-0.454,-0.312 -0.57,-0.935 -0.257,-1.39c1.348,-1.96 4.325,-3.431 7.156,-3.284c0.551,0.029 0.976,0.5 0.947,1.051c-0.029,0.551 -0.5,0.975 -1.051,0.947c-2.129,-0.111 -4.39,0.945 -5.404,2.419Z"/></g><text x="0" y="82" fill="#000000" font-size="5px" font-weight="bold" font-family="'Helvetica Neue', Helvetica, Arial-Unicode, Arial, Sans-serif">Created by Rifqi Real</text><text x="0" y="87" fill="#000000" font-size="5px" font-weight="bold" font-family="'Helvetica Neue', Helvetica, Arial-Unicode, Arial, Sans-serif">from the Noun Project</text></svg>