<!-- Generated by IcoMoon.io -->
<svg version="1.1" xmlns="http://www.w3.org/2000/svg" width="96" height="96" viewBox="0 0 96 96">
<title>line_style</title>
<path d="M12 15.938h72v16.125h-72v-16.125zM51.938 48v-8.063h32.063v8.063h-32.063zM12 48v-8.063h32.063v8.063h-32.063zM75.938 80.063v-8.063h8.063v8.063h-8.063zM60 80.063v-8.063h8.063v8.063h-8.063zM44.063 80.063v-8.063h7.875v8.063h-7.875zM27.938 80.063v-8.063h8.063v8.063h-8.063zM12 80.063v-8.063h8.063v8.063h-8.063zM63.938 63.938v-7.875h20.063v7.875h-20.063zM38.063 63.938v-7.875h19.875v7.875h-19.875zM12 63.938v-7.875h20.063v7.875h-20.063z"></path>
</svg>
