<?xml version="1.0" encoding="UTF-8" standalone="no"?>
<!-- Generated by IcoMoon.io -->

<svg
   version="1.1"
   width="39.938"
   height="40.125999"
   viewBox="0 0 39.938 40.125999"
   id="svg6"
   sodipodi:docname="slide.svg"
   inkscape:version="1.1.2 (0a00cf5339, 2022-02-04)"
   xmlns:inkscape="http://www.inkscape.org/namespaces/inkscape"
   xmlns:sodipodi="http://sodipodi.sourceforge.net/DTD/sodipodi-0.dtd"
   xmlns="http://www.w3.org/2000/svg"
   xmlns:svg="http://www.w3.org/2000/svg"
   xmlns:rdf="http://www.w3.org/1999/02/22-rdf-syntax-ns#"
   xmlns:cc="http://creativecommons.org/ns#"
   xmlns:dc="http://purl.org/dc/elements/1.1/">
  <defs
     id="defs10" />
  <sodipodi:namedview
     id="namedview8"
     pagecolor="#505050"
     bordercolor="#ffffff"
     borderopacity="1"
     inkscape:pageshadow="0"
     inkscape:pageopacity="0"
     inkscape:pagecheckerboard="1"
     showgrid="false"
     fit-margin-top="0"
     fit-margin-left="0"
     fit-margin-right="0"
     fit-margin-bottom="0"
     inkscape:zoom="8.5104167"
     inkscape:cx="39.833537"
     inkscape:cy="19.97552"
     inkscape:window-width="2560"
     inkscape:window-height="1355"
     inkscape:window-x="0"
     inkscape:window-y="0"
     inkscape:window-maximized="1"
     inkscape:current-layer="svg6" />
  <title
     id="title2">art_track</title>
  <path
     d="m 33.938,32.063 -9,-12 -6.938,9 -5.063,-6 -6.938,9 h 27.938 z m 6,-24 v 24 c 0,2.125333 -0.812667,4.000333 -2.438,5.625 -1.625333,1.624667 -3.500333,2.437333 -5.625,2.438 h -24 C 5.749667,40.126 3.906,39.313333 2.344,37.688 0.782,36.062667 6.667e-4,34.187667 0,32.063 v -24 C 0,5.937667 0.7813333,4.062667 2.344,2.438 3.906667,0.813333 5.750333,6.67e-4 7.875,0 h 24 c 2.125333,0 4.000333,0.812667 5.625,2.438 1.624667,1.625333 2.437333,3.500333 2.438,5.625 z"
     id="path4"
     sodipodi:nodetypes="ccccccccsscsscsscssc" />
  <metadata
     id="metadata827">
    <rdf:RDF>
      <cc:Work
         rdf:about="">
        <dc:title>art_track</dc:title>
      </cc:Work>
    </rdf:RDF>
  </metadata>
</svg>
